<?xml version="1.0" encoding="utf-8"?>
<!-- Generator: Adobe Illustrator 25.0.1, SVG Export Plug-In . SVG Version: 6.00 Build 0)  -->
<svg version="1.0" id="katman_1" xmlns="http://www.w3.org/2000/svg" xmlns:xlink="http://www.w3.org/1999/xlink" x="0px" y="0px"
	 viewBox="0 0 180 115" style="enable-background:new 0 0 180 115;" xml:space="preserve">
<style type="text/css">
	.st0{fill:#73C41D;}
</style>
<desc>Created with Sketch.</desc>
<g id="Page-1">
	<g id="Marketplace">
		<g id="Logo_x2F_BambooHR_x2F_Logo">
			<path id="BambooHR" class="st0" d="M164.7,55.4c0.2,0.4,0.3,0.8,0.3,1.3c0,0.5-0.1,0.9-0.3,1.3c-0.2,0.4-0.4,0.7-0.7,1
				c-0.3,0.3-0.6,0.5-1,0.7c-0.4,0.2-0.8,0.2-1.2,0.2c-0.4,0-0.9-0.1-1.2-0.2c-0.4-0.2-0.7-0.4-1-0.7c-0.3-0.3-0.5-0.6-0.7-1
				c-0.2-0.4-0.3-0.8-0.3-1.3c0-0.4,0.1-0.9,0.3-1.3c0.2-0.4,0.4-0.7,0.7-1c0.3-0.3,0.6-0.5,1-0.7c0.4-0.2,0.8-0.2,1.2-0.2
				c0.4,0,0.9,0.1,1.2,0.2c0.4,0.2,0.7,0.4,1,0.7C164.3,54.7,164.6,55.1,164.7,55.4z M164.2,57.8c0.1-0.3,0.2-0.7,0.2-1.1
				c0-0.4-0.1-0.7-0.2-1.1c-0.1-0.3-0.3-0.6-0.6-0.9c-0.2-0.2-0.5-0.4-0.8-0.6c-0.3-0.1-0.7-0.2-1-0.2c-0.4,0-0.7,0.1-1.1,0.2
				c-0.3,0.1-0.6,0.3-0.8,0.6c-0.2,0.2-0.4,0.5-0.6,0.9s-0.2,0.7-0.2,1.1c0,0.4,0.1,0.8,0.2,1.1c0.1,0.3,0.3,0.6,0.6,0.9
				c0.2,0.2,0.5,0.4,0.8,0.6c0.3,0.1,0.7,0.2,1.1,0.2c0.4,0,0.7-0.1,1-0.2c0.3-0.1,0.6-0.3,0.8-0.6
				C163.9,58.4,164.1,58.1,164.2,57.8z M163,56.6c-0.2,0.2-0.4,0.2-0.7,0.3l1.1,1.6h-0.6l-1-1.6h-0.6v1.6h-0.6v-3.7h1.5
				c0.4,0,0.8,0.1,1,0.3c0.2,0.2,0.3,0.4,0.3,0.8C163.3,56.2,163.2,56.5,163,56.6z M161.7,56.5c0.1,0,0.3,0,0.4,0
				c0.1,0,0.2,0,0.3-0.1c0.1,0,0.2-0.1,0.2-0.2c0.1-0.1,0.1-0.2,0.1-0.3c0-0.1,0-0.2-0.1-0.3c0-0.1-0.1-0.1-0.2-0.2
				c-0.1,0-0.2-0.1-0.3-0.1c-0.1,0-0.2,0-0.3,0h-0.8v1.2H161.7z M57.3,55.4v-2h2.3v14h-2.3v-1.9h-0.1c-1,1.2-2.8,2.4-5.2,2.4
				c-3.8,0-7.2-3-7.2-7.5c0-4.3,3.2-7.5,7.4-7.5C54.8,53,56.3,54.3,57.3,55.4L57.3,55.4z M52.4,65.9c2.7,0,5.1-2.2,5.1-5.4
				c0-3.3-2.3-5.5-5-5.5c-3.5,0-5.2,2.7-5.2,5.4C47.2,63.1,48.9,65.9,52.4,65.9z M77.8,53c3.2,0,5.4,2.2,5.4,6.3v8.2h-2.3v-8.3
				c0-2.2-1-4.1-3.4-4.1c-2,0-3.8,1.4-3.8,4.6v7.8h-2.4v-8.3c0-2.3-1.3-4.1-3.4-4.1c-2.4,0-3.9,1.7-3.9,4.6v7.8h-2.3v-14h2.3v1.8
				h0.1c0.9-1.3,2.4-2.2,4.2-2.2c2.2,0,4,1.3,4.6,2.9C73.6,54.4,75.4,53,77.8,53z M109,53c4.4,0,7.5,3.2,7.5,7.5
				c0,4.1-3.2,7.5-7.5,7.5c-4.3,0-7.5-3.3-7.5-7.5C101.5,56.1,104.8,53,109,53z M109,65.8c3,0,5.1-2.3,5.1-5.4c0-3-2-5.4-5.1-5.4
				c-3,0-5.1,2.3-5.1,5.4C103.9,63.6,106.3,65.8,109,65.8z M125.6,53c4.4,0,7.5,3.2,7.5,7.5c0,4.1-3.2,7.5-7.5,7.5
				c-4.3,0-7.5-3.3-7.5-7.5C118.1,56.1,121.4,53,125.6,53z M125.6,65.8c3,0,5.1-2.3,5.1-5.4c0-3-2-5.4-5.1-5.4c-3,0-5.1,2.3-5.1,5.4
				C120.5,63.6,122.9,65.8,125.6,65.8z M144.2,59.4v-6h1.7v14h-1.7V61h-7.5v6.4H135v-14h1.7v6H144.2z M157.4,57.6
				c0,2-1.5,3.5-3.3,3.9l4.4,6h-2.2l-4.2-5.8h-1.9v5.8h-1.7v-14h4.1C156.1,53.5,157.4,55.6,157.4,57.6z M150.2,60h2.6
				c1.9,0,2.8-1.1,2.8-2.5c0-1.6-1-2.5-2.8-2.5h-2.5V60z M35.5,52.8c4.1,0,7.6,3.5,7.6,7.6c0,4.4-3.4,7.8-7.8,7.8
				c-4,0-7.6-2.8-7.6-7.4V46h2.3l0,9l0.3-0.3C31.4,53.7,32.8,52.8,35.5,52.8z M35.3,66c3.3,0,5.4-2.3,5.4-5.4c0-2.8-2-5.6-5.4-5.6
				c-3.4,0-5.5,2.5-5.5,5.6C29.9,63.7,32.4,66,35.3,66z M92.7,52.8c4.1,0,7.6,3.5,7.6,7.6c0,4.4-3.4,7.8-7.8,7.8
				c-4,0-7.6-2.8-7.6-7.4V47.4h2.3l0,7.6l0.3-0.3C88.5,53.7,89.9,52.8,92.7,52.8z M92.4,66c3.3,0,5.4-2.3,5.4-5.4
				c0-2.8-2-5.6-5.4-5.6S87,57.5,87,60.6C87,63.7,89.5,66,92.4,66z M23,47.8c1.7,1.8,1.9,2.9,2.6,4.6l1,3.4c0,0-1-0.2-1.9-0.3
				c-1-0.1-1.4-0.3-2.6-0.8c-1.2-0.5-2.4-1.7-3.5-3.1c-1.1-1.4-3.7-3.5-3.7-3.5s0.8,0.1,1.6,0.3c0.7,0.2,2.4,0.7,4.1,1.6
				c0.4,0.2,0.6,0.3,1,0.6c0.6,0.4,1.2,0.9,1.8,1.5c0.7,0.7,1.3,1.3,1.8,1.9c-0.6-1-2-4.8-4.9-7.8C20.2,45.8,22.4,47.2,23,47.8z"/>
		</g>
	</g>
</g>
</svg>
