<svg preserveAspectRatio="none" width="100%" height="100%" overflow="visible" style="display: block;" viewBox="0 0 163 64" fill="none" xmlns="http://www.w3.org/2000/svg">
<g id="Logo" clip-path="url(#clip0_0_189)">
<path id="Vector" d="M55.365 39.0795C54.5472 39.6929 53.6478 40.1747 52.67 40.5267C51.6906 40.8769 50.704 41.0529 49.712 41.0529C48.4855 41.0529 47.33 40.8343 46.2492 40.3951C45.1684 39.9578 44.2689 39.3497 43.5542 38.5764C42.8379 37.803 42.3774 36.9318 42.173 35.9682C42.2015 35.9682 42.3846 35.9753 42.7205 35.9896C43.0565 36.0038 43.444 36.0198 43.8813 36.034C44.3204 36.0482 44.6848 36.0713 44.9764 36.0998C46.7007 36.1869 48.4392 36.13 50.192 35.9238C51.9448 35.7193 53.5518 35.3246 55.013 34.7397C56.4742 34.1548 57.6564 33.3512 58.563 32.3289C59.4678 31.3066 59.9211 30.0212 59.9211 28.4709C59.9211 27.3615 59.6722 26.3232 59.1763 25.3596C58.6785 24.3942 57.971 23.548 57.0502 22.8173C56.1294 22.0866 55.0414 21.5176 53.7846 21.1069C52.5278 20.698 51.1395 20.4936 49.6214 20.4936C47.9273 20.4936 46.3043 20.7869 44.7559 21.3701C43.2076 21.955 41.8424 22.8013 40.6585 23.9124C39.4745 25.0236 38.5395 26.3446 37.8533 27.8789C37.1671 29.4132 36.8241 31.1306 36.8241 33.0294C36.8241 34.7824 37.1227 36.3985 37.7218 37.8723C38.3208 39.348 39.183 40.6405 40.3083 41.7517C41.4317 42.8628 42.7916 43.7233 44.3844 44.3385C45.9772 44.9518 47.7513 45.2594 49.7103 45.2594C51.1999 45.2594 52.6309 45.0621 54.0051 44.6674C55.3774 44.2727 56.6715 43.6593 57.8839 42.8255C59.0963 41.9934 60.1842 40.9338 61.1494 39.6484L57.4235 36.9745C56.8689 37.7639 56.1809 38.4644 55.3632 39.0777L55.365 39.0795ZM42.9836 28.3838C43.6698 27.2744 44.612 26.3819 45.8101 25.7099C47.0082 25.0378 48.3663 24.7018 49.8862 24.7018C50.9084 24.7018 51.799 24.8636 52.5598 25.1836C53.3189 25.5054 53.9108 25.9357 54.3339 26.4761C54.757 27.0166 54.9703 27.6229 54.9703 28.2949C54.9703 29.0843 54.6788 29.7261 54.0939 30.2239C53.5091 30.7217 52.7412 31.1075 51.7919 31.3849C50.8426 31.6622 49.8116 31.8524 48.7023 31.9538C47.5913 32.0569 46.4963 32.1067 45.4154 32.1067C44.6848 32.1067 44.0129 32.0924 43.3996 32.0622C42.7863 32.0338 42.2743 32.0036 41.8655 31.9751C41.9241 30.6897 42.2957 29.4914 42.9836 28.3802V28.3838Z" fill="var(--fill-0, white)"/>
<path id="Vector_2" d="M80.7409 39.0795C79.9232 39.6929 79.0237 40.1747 78.046 40.5267C77.0665 40.8769 76.0799 41.0529 75.088 41.0529C73.8614 41.0529 72.706 40.8343 71.6251 40.3951C70.5443 39.9578 69.6448 39.3497 68.9302 38.5764C68.2138 37.803 67.7534 36.9318 67.549 35.9682C67.5774 35.9682 67.7605 35.9753 68.0965 35.9896C68.4325 36.0038 68.82 36.0198 69.2573 36.034C69.6964 36.0482 70.0608 36.0713 70.3523 36.0998C72.0767 36.1869 73.8152 36.13 75.568 35.9238C77.3207 35.7193 78.9277 35.3246 80.389 34.7397C81.8502 34.1548 83.0323 33.3512 83.9389 32.3289C84.8438 31.3066 85.2971 30.0212 85.2971 28.4709C85.2971 27.3615 85.0482 26.3232 84.5522 25.3596C84.0545 24.3942 83.347 23.548 82.4262 22.8173C81.5053 22.0866 80.4174 21.5176 79.1606 21.1069C77.9038 20.698 76.5155 20.4936 74.9973 20.4936C73.3032 20.4936 71.6802 20.7869 70.1319 21.3701C68.5836 21.955 67.2183 22.8013 66.0344 23.9124C64.8505 25.0236 63.9155 26.3446 63.2293 27.8789C62.5431 29.4132 62.2 31.1306 62.2 33.0294C62.2 34.7824 62.4987 36.3985 63.0977 37.8723C63.6968 39.348 64.559 40.6405 65.6842 41.7517C66.8077 42.8628 68.1676 43.7233 69.7604 44.3385C71.3532 44.9518 73.1273 45.2594 75.0862 45.2594C76.5759 45.2594 78.0069 45.0621 79.381 44.6674C80.7534 44.2727 82.0475 43.6593 83.2599 42.8255C84.4722 41.9934 85.5602 40.9338 86.5254 39.6484L82.7995 36.9745C82.2448 37.7639 81.5569 38.4644 80.7392 39.0777L80.7409 39.0795ZM68.3596 28.3838C69.0458 27.2744 69.9879 26.3819 71.1861 25.7099C72.3842 25.0378 73.7423 24.7018 75.2622 24.7018C76.2844 24.7018 77.175 24.8636 77.9358 25.1836C78.6949 25.5054 79.2868 25.9357 79.7099 26.4761C80.133 27.0166 80.3463 27.6229 80.3463 28.2949C80.3463 29.0843 80.053 29.7261 79.4699 30.2239C78.8851 30.7217 78.1171 31.1075 77.1679 31.3849C76.2186 31.6622 75.1876 31.8524 74.0783 31.9538C72.9673 32.0569 71.8722 32.1067 70.7914 32.1067C70.0608 32.1067 69.3889 32.0924 68.7756 32.0622C68.1623 32.0338 67.6503 32.0036 67.2415 31.9751C67.3001 30.6897 67.6716 29.4914 68.3596 28.3802V28.3838Z" fill="var(--fill-0, white)"/>
<path id="Vector_3" d="M118.228 20.4936C116.884 20.4936 115.634 20.7869 114.481 21.3701C113.327 21.955 112.34 22.7355 111.523 23.7151C110.705 24.6947 110.12 25.813 109.77 27.0682C109.39 25.0805 108.426 23.4893 106.878 22.291C105.329 21.0927 103.415 20.4936 101.136 20.4936C100.112 20.4936 99.0827 20.7283 98.0464 21.1941C97.0082 21.6616 96.0874 22.2981 95.2857 23.0999C94.4822 23.9035 93.8902 24.8174 93.5116 25.8397V20.7994H88.5146V44.9518H93.5116V32.4142C93.5116 30.9528 93.7676 29.6532 94.2778 28.5136C94.7879 27.374 95.4972 26.4761 96.4038 25.8183C97.3087 25.1605 98.3752 24.8316 99.6036 24.8316C101.415 24.8316 102.876 25.4681 103.987 26.7375C105.097 28.0087 105.653 29.7545 105.653 31.9751V44.9501H110.605V32.4125C110.605 30.2203 111.16 28.4087 112.271 26.9775C113.382 25.5463 114.858 24.8298 116.697 24.8298C118.537 24.8298 119.97 25.4663 121.081 26.7357C122.19 28.0069 122.747 29.7528 122.747 31.9733V44.9483H127.699V30.7893C127.699 27.3989 126.83 24.8352 125.092 23.0964C123.353 21.3576 121.065 20.4882 118.232 20.4882L118.228 20.4936Z" fill="var(--fill-0, white)"/>
<path id="Vector_4" d="M132.881 44.0398C133.004 44.1322 133.13 44.2229 133.26 44.3047L133.415 44.3971C133.507 44.4522 133.607 44.5056 133.713 44.5571C133.79 44.598 133.868 44.6336 133.95 44.6691C134.038 44.7083 134.129 44.7456 134.22 44.7812C134.229 44.7847 134.238 44.7883 134.246 44.7918C134.316 44.8185 134.387 44.8452 134.458 44.87C134.492 44.8807 134.522 44.8914 134.556 44.9038C134.643 44.9323 134.732 44.9607 134.817 44.9856C134.915 45.0141 135.009 45.0407 135.105 45.0621C135.119 45.0674 135.134 45.0692 135.148 45.0727C135.231 45.0923 135.318 45.1136 135.406 45.1296C135.491 45.1474 135.58 45.1634 135.665 45.1776C135.686 45.1812 135.709 45.183 135.729 45.1865C135.811 45.199 135.893 45.2078 135.973 45.2203C135.985 45.2203 135.997 45.2221 136.012 45.2238C136.102 45.2327 136.197 45.2398 136.287 45.2452L136.41 45.2523C136.509 45.2576 136.609 45.2594 136.71 45.2594C136.78 45.2594 136.849 45.2594 136.917 45.2558C137.997 45.2292 139.903 44.7723 140.635 44.0576L140.628 44.0327C140.207 43.4869 139.828 42.8948 139.498 42.2566C139.242 41.7605 139.016 41.2378 138.826 40.6885C138.412 40.852 137.955 41.0085 137.761 41.0085C137.236 41.0085 136.783 40.8325 136.405 40.484C136.024 40.132 135.834 39.636 135.834 38.9924V9.85655H130.837V39.428C130.837 40.804 131.13 41.9205 131.715 42.7828C132.049 43.2788 132.439 43.6949 132.881 44.038V44.0398Z" fill="var(--fill-0, white)"/>
<path id="Vector_5" d="M158.003 21.5319V33.7619C158.003 35.1948 157.756 36.466 157.258 37.5754C156.76 38.6866 156.053 39.5613 155.132 40.2067C154.211 40.8485 153.138 41.1703 151.911 41.1703C150.098 41.1703 148.638 40.5623 147.527 39.3497C146.416 38.139 145.863 36.4216 145.863 34.201V21.5336H140.911V35.2535C140.911 37.5043 141.306 39.3871 142.095 40.9072C142.882 42.4272 143.995 43.574 145.426 44.3474C146.859 45.1207 148.51 45.5083 150.379 45.5083C151.255 45.5083 152.174 45.3767 153.141 45.1136C154.105 44.8523 155.025 44.3545 155.902 43.6238C156.744 42.9215 157.447 41.9063 158.005 40.58V51.8731C158.005 54.1772 157.363 55.9533 156.078 57.1978C155.594 57.6619 155.059 58.0406 154.465 58.3304C154.407 58.3588 154.35 58.3855 154.288 58.4104C153.82 58.629 153.312 58.7908 152.775 58.8975C151.548 59.214 150.268 59.4077 149.005 59.5109C148.26 59.5731 147.515 59.6086 146.774 59.6086C145.051 59.6086 143.339 59.4166 141.668 58.9064C141.416 58.8299 141.163 58.7446 140.911 58.6539C138.349 57.7188 136.543 56.0493 135.946 53.3025C135.574 51.5851 135.69 49.8623 136.108 48.1662C134.977 48.0969 133.859 47.8231 132.78 47.352C132.483 47.2222 132.197 47.0782 131.921 46.9146C131.614 48.0436 131.393 49.1921 131.287 50.3726C131.1 52.4474 131.176 54.5044 131.95 56.4742C133.21 59.6886 135.669 61.6461 138.842 62.6861C141.565 63.5786 144.308 64.0018 147.058 64.0018C149.625 64.0018 152.195 63.6338 154.762 62.9351C155.043 62.8586 155.322 62.7733 155.591 62.679C155.671 62.6541 155.749 62.6275 155.825 62.599C155.939 62.5617 156.053 62.5244 156.161 62.4835C157.623 61.927 158.865 61.1358 159.887 60.1171C160.909 59.0913 161.683 57.8859 162.211 56.5009C162.735 55.1088 162.998 53.5674 162.998 52.6056V21.5479L158.001 21.5336L158.003 21.5319Z" fill="var(--fill-0, white)"/>
<path id="Vector_6" d="M12.6675 6.14434C14.364 6.14434 15.7393 4.76888 15.7393 3.07217C15.7393 1.37546 14.364 0 12.6675 0C10.971 0 9.59576 1.37546 9.59576 3.07217C9.59576 4.76888 10.971 6.14434 12.6675 6.14434Z" fill="var(--fill-0, white)"/>
<path id="Vector_7" d="M22.3753 6.14434C24.0718 6.14434 25.4471 4.76888 25.4471 3.07217C25.4471 1.37546 24.0718 0 22.3753 0C20.6788 0 19.3035 1.37546 19.3035 3.07217C19.3035 4.76888 20.6788 6.14434 22.3753 6.14434Z" fill="var(--fill-0, white)"/>
<path id="Vector_8" d="M33.6776 23.868C33.139 19.9389 31.7453 16.3689 28.702 13.6914C25.6142 10.9731 22.1122 9.85655 18.4236 9.85655C16.7899 9.85655 15.1189 10.0752 13.4319 10.4717C2.25051 13.0958 -3.29754 25.6228 2.05852 35.794L3.13756 37.531C5.17474 40.4165 8.28919 42.685 12.5324 43.8655C15.7109 44.7492 18.9249 44.9323 22.1869 44.9376C22.1869 44.9376 33.4767 44.9145 33.914 44.8949C33.914 44.4967 33.9265 32.9956 33.9034 27.5802C33.898 26.3428 33.8465 25.0947 33.6776 23.8698V23.868ZM28.9384 39.9418C26.7217 39.9489 24.1565 39.9542 22.1851 39.9596C19.6342 39.9542 16.6513 39.844 13.8657 39.0688C10.9841 38.267 8.76916 36.8198 7.27948 34.7664L6.3871 33.3299C4.60056 29.8345 4.50457 25.8059 6.12579 22.2483C7.73101 18.7264 10.8081 16.2 14.5679 15.3182C15.9349 14.9982 17.2326 14.8346 18.4236 14.8346C21.1434 14.8346 23.4312 15.6826 25.4133 17.4285C27.2425 19.0375 28.302 21.299 28.7446 24.5436C28.862 25.397 28.9188 26.3677 28.9242 27.6015C28.9348 30.1386 28.9402 34.3592 28.9384 39.9418Z" fill="var(--fill-0, white)"/>
</g>
<defs>
<clipPath id="clip0_0_189">
<rect width="163" height="64" fill="white"/>
</clipPath>
</defs>
</svg>
