<?xml version="1.0" encoding="utf-8"?>
<!-- Generator: Adobe Illustrator 29.5.1, SVG Export Plug-In . SVG Version: 9.03 Build 0)  -->
<svg version="1.0" id="katman_1" xmlns="http://www.w3.org/2000/svg" xmlns:xlink="http://www.w3.org/1999/xlink" x="0px" y="0px"
	 viewBox="0 0 841.9 595.3" style="enable-background:new 0 0 841.9 595.3;" xml:space="preserve">
<path d="M77.2,241.2H80c15.8,0,31.7,0,47.5,0c6.8,0,13.5,1.2,19.7,4.1c9.3,4.3,15.6,11.2,18.6,20.9c3.1,10.2,3.1,20.4-1.2,30.2
	c-5.6,12.5-15.9,19.2-29,21.5c-6.1,1.1-12.5,0.9-18.7,1.1c-4.7,0.2-9.4,0-14.3,0v47.5H77.2V241.2z M102.6,296.3
	c8.9,0,17.6,0.2,26.2-0.1c4.6-0.2,8.8-2.1,12-5.6c4.6-5.2,5.4-11.3,2.7-17.6c-2.7-6.5-8.1-9.5-14.8-9.8c-5.8-0.3-11.7-0.1-17.6-0.1
	c-2.8,0-5.6,0-8.5,0V296.3L102.6,296.3z"/>
<path d="M264.6,326.5c-12,0-23.6,0-35.2,0s-23.1,0-34.6,0c-0.3,8.6,6.2,16.7,15.4,19.1c11.3,3,21,0.3,28.8-8.6
	c0.2-0.3,0.4-0.5,0.7-0.7c0.1-0.1,0.3-0.2,0.7-0.4c5.7,4.1,11.5,8.2,17.5,12.5c-5.4,7.3-11.9,12.9-20,16.5
	c-30,13.3-63.7-5.8-67.7-38.4c-2-16,1.6-30.5,12.7-42.6c11.1-12.1,25.1-16.6,41.3-14.9c13.3,1.4,24.3,7.2,32.1,18.2
	C264.6,298.9,266.7,312.2,264.6,326.5L264.6,326.5z M242,308.5c-2.8-12.5-12.4-19.4-25.6-18.8c-10.3,0.5-19.8,8.9-20.9,18.8H242z"/>
<path d="M725.7,369c-29.3,0-50.3-21.1-50.3-50.4c0-28.5,21.8-49.9,50.8-49.9c28.8,0,50.3,21.9,50.3,51
	C776.5,347.9,754.8,369,725.7,369z M725.6,346.8c15.4,0,27-11.7,27.2-27.5c0.1-16.1-11.4-28.4-26.8-28.5
	c-15.6-0.1-27.1,11.7-27.2,27.9C698.7,334.7,710.1,346.7,725.6,346.8L725.6,346.8z"/>
<path d="M475.6,369c-29.3,0-50.5-21.2-50.4-50.1c0.1-29,21.6-50.2,50.7-50.2c28.8,0,50.1,21.6,50,50.7
	C525.9,347.9,504.5,369,475.6,369L475.6,369z M475.4,346.8c15.8,0,27.1-11.5,27.1-27.6c0-16.1-11.5-28.3-26.9-28.3
	c-15.3,0-26.9,12.1-27,28C448.6,335.1,459.8,346.7,475.4,346.8L475.4,346.8z"/>
<path d="M619.1,366.9h-23.4v-3.3c0-20.4,0-40.8,0-61.2c0-8.8-2-10.8-10.8-10.8c-5.6,0-11.2,0-16.8,0c-6.3,0-8.9,2.6-8.9,8.8
	c0,21.1,0,42.1,0,63.2v3.2h-23.5c0-1,0-1.9,0-2.8c0-22.1,0-44.1,0-66.2c0-16.1,12-28.1,28.1-28.1c8.9,0,17.8,0,26.6,0
	c16.7,0,28.6,11.9,28.6,28.7c0,21.8,0,43.6,0,65.4V366.9L619.1,366.9z"/>
<path d="M334.6,337.3h23.7c2.5,9.4,6.7,12.8,16.4,12.9c3.9,0,8-0.5,11.8-1.5c4.4-1.2,6.5-4.7,6.5-9.1c0-4.2-1.9-7.3-6.4-8.6
	c-5.4-1.5-10.9-2.5-16.4-3.5c-7.2-1.3-14.2-3-20.7-6.5c-15.5-8.3-15.6-27.6-7.6-38c6.1-8.1,14.7-12,24.3-13.7
	c12-2.1,23.6-0.8,34.2,5.4c9.1,5.3,14.1,13.3,14.7,24.1h-23.1c-1.7-9.1-7.3-11.5-15-11.7c-3.3-0.1-6.7,0.3-9.9,1
	c-4,0.9-6.2,3.8-6.5,7.4c-0.4,4.6,1,7.8,5.2,9.3c4.4,1.6,9.2,2.5,13.8,3.3c8.3,1.4,16.7,2.6,24.2,6.8c10.3,5.6,13.8,15.1,12.3,25.8
	c-1.9,14.1-10.9,22.1-23.9,25.8c-14.8,4.2-29.2,3.2-42.6-5c-8.3-5.1-13.4-12.7-15.1-22.4C334.5,338.8,334.6,338.2,334.6,337.3
	L334.6,337.3z"/>
<path d="M329.9,269.8v21.8c-1.4,0-2.8,0-4.2,0c-5.6,0-11.2,0-16.8,0c-6.3,0-9,2.7-9,9.1c0,21.1,0,42.1,0,63.2c0,0.9,0,1.8,0,2.9
	h-23.3v-2.6c0-22.2,0-44.5,0-66.7c0-15.8,12-27.7,27.8-27.8c7.7,0,15.4,0,23.1,0C328.3,269.7,329,269.8,329.9,269.8L329.9,269.8z"/>
<path d="M661.3,366.9h-23.8v-84.6h23.8V366.9z"/>
<path d="M649.3,267.7c-8.9,0-15.7-6.7-15.6-15.5c0-8.7,7-15.8,15.5-15.8c8.7,0,15.8,7.1,15.8,15.8
	C665.1,260.9,658.2,267.6,649.3,267.7z"/>
</svg>
