<?xml version="1.0" encoding="utf-8"?>
<!-- Generator: Adobe Illustrator 26.0.3, SVG Export Plug-In . SVG Version: 6.00 Build 0)  -->
<svg version="1.0" id="katman_1" xmlns="http://www.w3.org/2000/svg" xmlns:xlink="http://www.w3.org/1999/xlink" x="0px" y="0px"
	 viewBox="0 0 600 450" style="enable-background:new 0 0 600 450;" xml:space="preserve">
<g>
	<path d="M82.6,210.4c0-7.1-3.6-12.9-10.3-17.9h15.6c5.6,4.3,8.8,10.9,8.8,17.9c0,7-3.2,13.6-8.8,17.9c5.1,2.1,7.9,7.3,7.9,14.7V257
		H81.7v-14.1c0-7-3.4-12-9.4-14.7C79,223.3,82.6,217.5,82.6,210.4L82.6,210.4z M113.2,210.4c0-7.1-3.6-12.9-10.3-17.9h15.6
		c5.6,4.3,8.8,10.9,8.8,17.9c0,7-3.2,13.6-8.8,17.9c5.1,2.1,7.9,7.3,7.9,14.7V257h-14.1v-14.1c0-7-3.4-12-9.4-14.7
		C109.6,223.3,113.2,217.5,113.2,210.4L113.2,210.4z M143.8,210.4c0-7.1-3.6-12.9-10.3-17.9h15.6c5.6,4.3,8.8,10.9,8.8,17.9
		c0,7-3.3,13.6-8.8,17.9c5.1,2.1,7.9,7.3,7.9,14.7V257h-14.1v-14.1c0-7-3.4-12-9.4-14.7C140.2,223.3,143.8,217.5,143.8,210.4
		L143.8,210.4z M201,245.3h-10.7v-41h26.3c12.7,0,18.9,4.7,18.9,12.4c0,5.2-3.1,9.1-8.8,11.1c5.9,0.9,8.5,4,8.5,9.5v8h-10.8v-7.5
		c0-4.7-2.4-6.6-8.5-6.6H201V245.3z M216,210.2h-15v15h14.9c5.4,0,8.8-3,8.8-7.7C224.7,212.9,221.5,210.2,216,210.2L216,210.2z
		 M254.1,204.2h-10.7v41h10.7V204.2z M287,231.9h-13.1v13.4h-10.7v-41h24c12.6,0,19.3,5.3,19.3,13.7
		C306.5,226.7,299.7,231.9,287,231.9L287,231.9z M286.7,210.2h-12.8v15.7h12.7c5.5,0,9-2.8,9-7.9C295.6,213,292.1,210.2,286.7,210.2
		L286.7,210.2z M336.7,231.9h-13.1v13.4h-10.7v-41h24c12.7,0,19.3,5.3,19.3,13.7C356.2,226.7,349.4,231.9,336.7,231.9L336.7,231.9z
		 M336.4,210.2h-12.8v15.7h12.7c5.5,0,9-2.8,9-7.9C345.3,213,341.8,210.2,336.4,210.2L336.4,210.2z M373.3,204.2v34.9H400v6.1h-37.4
		v-41H373.3z M417.5,204.2h-10.7v41h10.7V204.2z M433.6,217.9v27.3h-7.1v-41h8l29.2,27.3v-27.3h7.1v41h-8L433.6,217.9z M505.8,209
		c-10.2,0-16.8,6.4-16.8,16.1c0,9.5,6.4,15.3,16.3,15.3h0.7c3.4,0,7.1-0.7,10.6-1.8v-11.1h-17.3v-5.9H527V241
		c-5.8,3-14.5,5.3-21.6,5.3h-0.9c-16.3,0-26.7-8.6-26.7-21c0-12.3,10.8-22.1,27.3-22.1h1c6.9,0,14.8,2.2,20.6,5.6l-3.1,5
		c-5.2-2.9-11.5-4.7-17.1-4.7H505.8z M505.8,209"/>
</g>
</svg>
