<?xml version="1.0" encoding="UTF-8"?>
<svg xmlns="http://www.w3.org/2000/svg" version="1.1" viewBox="0 0 1000 1000">
  <defs>
    <style>
      .cls-1 {
        fill: #282828;
      }

      .cls-2 {
        fill: #5dc9c8;
      }
    </style>
  </defs>
  <!-- Generator: Adobe Illustrator 28.6.0, SVG Export Plug-In . SVG Version: 1.2.0 Build 709)  -->
  <g>
    <g id="Layer_2">
      <g>
        <path class="cls-2" d="M744.6,524.7c5.3-1.7,10-4.3,14.1-8.1,3.8-3.8,7-7.8,9.1-12.7,2.1-4.9,3.2-10.1,3.2-15.6s-1.2-10.7-3.2-15.6-5.3-9.3-9.1-12.7c-7.6-7-17.9-10.4-30.8-10.4h-51v102.9h27v-25.2h10l28.4,25.2h30.8l-28.4-27.5ZM739.9,498.9c-2.6,2.9-7,4.1-13.5,4.1h-22.6v-29.6h22.6c6.5,0,10.9,1.4,13.5,4.3,2.6,2.9,4.1,6.4,4.1,10.7s-1.5,7.5-4.1,10.4Z"/>
        <path class="cls-1" d="M264.5,528.8l50.1-62.3v-16.8h-83.3v23.2h45.5l-49.8,62.3v16.8h92.1v-23.2h-54.5Z"/>
        <path class="cls-1" d="M427,499.8c0-9.6-2.1-18.3-6.2-26.1-4.1-8.1-10-14.5-17.6-19.1-7.6-4.6-15.8-7.2-25.2-7.2s-14.4,1.4-20.8,4.3c-6.5,2.9-11.7,6.7-15.8,11.6-4.4,4.9-7.6,10.7-10,17.1-2.3,6.4-3.5,13.3-3.5,20.3,0,15.9,5,28.7,15.2,38.5,6.5,6.4,14.1,10.4,22.9,12.7,5,1.2,10.3,2,15.8,2s10.3-.6,15.2-2c2.9-.9,5.6-1.7,8.5-2.9,7.6-3.2,13.8-7.8,18.8-13.6l-15.8-15.6c-2.9,3.2-6.7,5.8-11.1,8.1-4.7,2.9-9.7,4.1-15,4.1s-13.8-2.3-19.1-6.7c-5.3-4.6-8.2-10.4-9.1-17.4h72.1c.3-2.6.6-5.2.6-8.1ZM355.7,487.6c.6-4.9,3.2-9,7.3-12.5,4.4-3.5,9.4-5.5,15-5.5s10.3,1.7,14.1,5.5c3.8,3.5,6.2,7.8,6.5,12.5h-42.8Z"/>
        <path class="cls-1" d="M541.1,478.7c-1.8-5.5-4.4-10.4-8.2-14.8-4.4-5.2-9.7-9.3-15.8-12.2-6.2-2.9-12.9-4.3-19.9-4.3-10.8,0-20.5,3.5-29.3,10.4v-8.1h-26.7v102.6h27.9v-66.6c2.3-3.2,5.9-6.1,10.3-8.7,4.7-2.6,9.4-4.1,15-4.1s11.7,2,15.5,5.8c4.1,4.1,6.2,10.4,6.2,19.4v54.2h27.9v-52.2c0-8.7-.9-15.6-2.6-21.4Z"/>
        <path class="cls-2" d="M630.2,449.7v37.4h-38.1v-37.4h-28.7v102.6h28.7v-39.1h38.1v38.8h29v-102.3h-29Z"/>
        <path class="cls-2" d="M584.3,414.5c0,0-.2,0-.3,0-.4,0-.5.3-.1.5,2.2,1.8,4.9,3.1,7.3,4.4,2.6,1.7,5.3,3.2,8.2,4.9.8.6.5,1.8-.4,2l-18.9,4c-4.3.9-8.6-1.3-10.8-5.1-5-8.6-11.4-16.7-19.1-24.1-6.2-5.8-12.9-11-20.5-15.6-56-33.6-132.8-22-172.1,26.1-3.1,3.8-10,1.1-8.3-3.4,4.9-12.7,12.1-25,21.5-36.6,52.2-64.3,155.4-80,230.2-34.8,25.5,15.4,44.6,35.6,56.3,58.5,1.1,2.3.7,5-1.1,6.7-14.2,13.7-32.3,19.2-54.3,17-6.1-.6-11.9-2.3-17.5-4.6Z"/>
        <path class="cls-2" d="M416.9,589.1c0,0,.2,0,.2,0,.4,0,.5-.2.1-.5-2.2-1.5-4.9-2.8-7.3-4.2-2.6-1.4-5.6-3.2-8.2-4.6-.7-.4-.6-1.5.2-1.7l19.4-4.7c4-1,8,.9,10.2,4.4,5.2,8.5,12,16.5,20,23.5,6.2,5.5,13.2,10.4,20.8,14.8,56.3,31.9,132,18.5,169.2-29.8,2.7-3.6,9.7-1.2,8.2,3.1-4.4,12.7-11,25-19.9,36.6-49.6,64.6-151,82.6-226.4,40-25.8-14.5-45.2-34.2-57.5-56.5-1.1-2.2-1-4.7.7-6.4,13.7-13.8,31.3-19.8,53-18.2,6.1.6,11.7,2.3,17.2,4.3Z"/>
      </g>
    </g>
  </g>
</svg>